P3
3 3
255
192 209 223 192 208 222 192 209 222 192 209 223 192 208 220 193 208 220 192 209 221 192 208 220 193 209 221 